mtllib ideas_gear_holder1.mtl

v  5.350000 0.000000 0.000000
v  5.350000 0.000000 0.000000
v  5.350000 0.000000 0.000000
v  5.167657 0.000000 -1.384321
v  5.167657 0.000000 -1.384321
v  4.633005 0.000000 -2.675310
v  4.633005 0.000000 -2.675310
v  3.783428 0.000000 -3.782499
v  3.783428 0.000000 -3.782499
v  2.674666 0.000000 -4.633296
v  2.674666 0.000000 -4.633296
v  1.385076 0.000000 -5.167583
v  1.385076 0.000000 -5.167583
v  0.000001 0.000000 -5.349854
v  0.000001 0.000000 -5.349854
v  -1.385075 0.000000 -5.167584
v  -1.385075 0.000000 -5.167584
v  -2.674665 0.000000 -4.633297
v  -2.674665 0.000000 -4.633297
v  -3.783427 0.000000 -3.782499
v  -3.783427 0.000000 -3.782499
v  -4.633004 0.000000 -2.675311
v  -4.633004 0.000000 -2.675311
v  -5.167657 0.000000 -1.384321
v  -5.167657 0.000000 -1.384321
v  -5.350000 0.000000 -0.000000
v  -5.350000 0.000000 -0.000000
v  -5.350000 0.000000 -0.000000
v  -5.167657 0.000000 1.384321
v  -5.167657 0.000000 1.384321
v  -4.633005 0.000000 2.675310
v  -4.633005 0.000000 2.675310
v  -3.783428 0.000000 3.782499
v  -3.783428 0.000000 3.782499
v  -2.674666 0.000000 4.633296
v  -2.674666 0.000000 4.633296
v  -1.385076 0.000000 5.167583
v  -1.385076 0.000000 5.167583
v  -0.000001 0.000000 5.349854
v  -0.000001 0.000000 5.349854
v  1.385075 0.000000 5.167584
v  1.385075 0.000000 5.167584
v  2.674665 0.000000 4.633297
v  2.674665 0.000000 4.633297
v  3.783427 0.000000 3.782499
v  3.783427 0.000000 3.782499
v  4.633004 0.000000 2.675311
v  4.633004 0.000000 2.675311
v  5.167657 0.000000 1.384321
v  5.167657 0.000000 1.384321
v  6.350000 52.940000 0.000000
v  6.350000 52.940000 0.000000
v  6.350000 52.940000 0.000000
v  5.721256 52.940000 2.754912
v  5.721256 52.940000 2.754912
v  3.959346 52.940000 4.964429
v  3.959346 52.940000 4.964429
v  1.413100 52.940000 6.190710
v  1.413100 52.940000 6.190710
v  -1.413100 52.940000 6.190710
v  -1.413100 52.940000 6.190710
v  -3.959346 52.940000 4.964429
v  -3.959346 52.940000 4.964429
v  -5.721256 52.940000 2.754912
v  -5.721256 52.940000 2.754912
v  -6.350000 52.940000 -0.000000
v  -6.350000 52.940000 -0.000000
v  -6.350000 52.940000 -0.000000
v  -5.721256 52.940000 -2.754912
v  -5.721256 52.940000 -2.754912
v  -3.959346 52.940000 -4.964429
v  -3.959346 52.940000 -4.964429
v  -1.413100 52.940000 -6.190710
v  -1.413100 52.940000 -6.190710
v  1.413100 52.940000 -6.190710
v  1.413100 52.940000 -6.190710
v  3.959346 52.940000 -4.964429
v  3.959346 52.940000 -4.964429
v  5.721256 52.940000 -2.754912
v  5.721256 52.940000 -2.754912
v  -6.350000 1.000000 -0.000000
v  -6.350000 1.000000 -0.000000
v  -6.350000 1.000000 -0.000000
v  -6.350000 1.000000 -0.000000
v  -5.721172 1.000000 -2.755121
v  -5.721172 1.000000 -2.755121
v  -3.959179 1.000000 -4.964615
v  -3.959179 1.000000 -4.964615
v  -1.413016 1.000000 -6.190791
v  -1.413016 1.000000 -6.190791
v  1.413017 1.000000 -6.190790
v  1.413017 1.000000 -6.190790
v  3.959181 1.000000 -4.964614
v  3.959181 1.000000 -4.964614
v  5.721173 1.000000 -2.755120
v  5.721173 1.000000 -2.755120
v  6.350000 1.000000 0.000000
v  6.350000 1.000000 0.000000
v  6.350000 1.000000 0.000000
v  6.350000 1.000000 0.000000
v  5.721172 1.000000 2.755121
v  5.721172 1.000000 2.755121
v  3.959179 1.000000 4.964615
v  3.959179 1.000000 4.964615
v  1.413016 1.000000 6.190791
v  1.413016 1.000000 6.190791
v  -1.413017 1.000000 6.190790
v  -1.413017 1.000000 6.190790
v  -3.959181 1.000000 4.964614
v  -3.959181 1.000000 4.964614
v  -5.721173 1.000000 2.755120
v  -5.721173 1.000000 2.755120

vt  0.000000 0.500000 0.000000
vt  0.000000 0.500000 0.000000
vt  0.000000 0.500000 0.000000
vt  0.000000 0.416687 0.000000
vt  0.000000 0.416687 0.000000
vt  0.000000 0.333310 0.000000
vt  0.000000 0.333310 0.000000
vt  0.000000 0.250039 0.000000
vt  0.000000 0.250039 0.000000
vt  0.000000 0.166648 0.000000
vt  0.000000 0.166648 0.000000
vt  0.000000 0.083358 0.000000
vt  0.000000 0.083358 0.000000
vt  0.000000 0.000000 0.000000
vt  0.000000 0.000000 0.000000
vt  1.000000 0.083358 0.000000
vt  1.000000 0.083358 0.000000
vt  1.000000 0.166648 0.000000
vt  1.000000 0.166648 0.000000
vt  1.000000 0.250039 0.000000
vt  1.000000 0.250039 0.000000
vt  1.000000 0.333310 0.000000
vt  1.000000 0.333310 0.000000
vt  1.000000 0.416687 0.000000
vt  1.000000 0.416687 0.000000
vt  1.000000 0.500000 0.000000
vt  1.000000 0.500000 0.000000
vt  1.000000 0.500000 0.000000
vt  1.000000 0.583313 0.000000
vt  1.000000 0.583313 0.000000
vt  1.000000 0.666690 0.000000
vt  1.000000 0.666690 0.000000
vt  1.000000 0.749961 0.000000
vt  1.000000 0.749961 0.000000
vt  1.000000 0.833352 0.000000
vt  1.000000 0.833352 0.000000
vt  1.000000 0.916642 0.000000
vt  1.000000 0.916642 0.000000
vt  1.000000 1.000000 0.000000
vt  1.000000 1.000000 0.000000
vt  0.000000 0.916642 0.000000
vt  0.000000 0.916642 0.000000
vt  0.000000 0.833352 0.000000
vt  0.000000 0.833352 0.000000
vt  0.000000 0.749961 0.000000
vt  0.000000 0.749961 0.000000
vt  0.000000 0.666690 0.000000
vt  0.000000 0.666690 0.000000
vt  0.000000 0.583313 0.000000
vt  0.000000 0.583313 0.000000
vt  0.462001 0.500000 0.000000
vt  0.462001 0.500000 0.000000
vt  0.462001 0.500000 0.000000
vt  0.465733 0.516454 0.000000
vt  0.465733 0.516454 0.000000
vt  0.476238 0.529680 0.000000
vt  0.476238 0.529680 0.000000
vt  0.491506 0.537041 0.000000
vt  0.491506 0.537041 0.000000
vt  0.508494 0.537041 0.000000
vt  0.508494 0.537041 0.000000
vt  0.523762 0.529680 0.000000
vt  0.523762 0.529680 0.000000
vt  0.534267 0.516454 0.000000
vt  0.534267 0.516454 0.000000
vt  0.537999 0.500000 0.000000
vt  0.537999 0.500000 0.000000
vt  0.537999 0.500000 0.000000
vt  0.534267 0.483546 0.000000
vt  0.534267 0.483546 0.000000
vt  0.523762 0.470320 0.000000
vt  0.523762 0.470320 0.000000
vt  0.508494 0.462959 0.000000
vt  0.508494 0.462959 0.000000
vt  0.491506 0.462959 0.000000
vt  0.491506 0.462959 0.000000
vt  0.476238 0.470320 0.000000
vt  0.476238 0.470320 0.000000
vt  0.465733 0.483546 0.000000
vt  0.465733 0.483546 0.000000
vt  0.950281 0.500000 0.000000
vt  0.950281 0.500000 0.000000
vt  0.950281 0.500000 0.000000
vt  0.950281 0.500000 0.000000
vt  0.944919 0.359009 0.000000
vt  0.944919 0.359009 0.000000
vt  0.921249 0.219101 0.000000
vt  0.921249 0.219101 0.000000
vt  0.803960 0.086789 0.000000
vt  0.803960 0.086789 0.000000
vt  0.196040 0.086789 0.000000
vt  0.196040 0.086789 0.000000
vt  0.078751 0.219101 0.000000
vt  0.078751 0.219101 0.000000
vt  0.055081 0.359009 0.000000
vt  0.055081 0.359009 0.000000
vt  0.049719 0.500000 0.000000
vt  0.049719 0.500000 0.000000
vt  0.049719 0.500000 0.000000
vt  0.049719 0.500000 0.000000
vt  0.055081 0.640991 0.000000
vt  0.055081 0.640991 0.000000
vt  0.078751 0.780899 0.000000
vt  0.078751 0.780899 0.000000
vt  0.196040 0.913211 0.000000
vt  0.196040 0.913211 0.000000
vt  0.803960 0.913211 0.000000
vt  0.803960 0.913211 0.000000
vt  0.921249 0.780899 0.000000
vt  0.921249 0.780899 0.000000
vt  0.944919 0.640991 0.000000
vt  0.944919 0.640991 0.000000

vn  0.000000 -1.000000 0.000000
vn  0.707107 -0.707107 -0.000000
vn  0.707107 -0.707107 0.000000
vn  0.000000 -1.000000 0.000000
vn  0.683016 -0.707107 -0.182999
vn  0.000000 -1.000000 0.000000
vn  0.612382 -0.707107 -0.353538
vn  0.000000 -1.000000 0.000000
vn  0.500012 -0.707107 -0.499988
vn  0.000000 -1.000000 0.000000
vn  0.353565 -0.707107 -0.612366
vn  0.000000 -1.000000 0.000000
vn  0.183020 -0.707107 -0.683011
vn  0.000000 -1.000000 0.000000
vn  0.000000 -0.707107 -0.707107
vn  0.000000 -1.000000 0.000000
vn  -0.183019 -0.707107 -0.683011
vn  0.000000 -1.000000 0.000000
vn  -0.353565 -0.707107 -0.612366
vn  0.000000 -1.000000 0.000000
vn  -0.500012 -0.707107 -0.499988
vn  0.000000 -1.000000 0.000000
vn  -0.612381 -0.707107 -0.353538
vn  0.000000 -1.000000 0.000000
vn  -0.683016 -0.707107 -0.182999
vn  0.000000 -1.000000 0.000000
vn  -0.707107 -0.707107 -0.000000
vn  -0.707107 -0.707107 0.000000
vn  0.000000 -1.000000 0.000000
vn  -0.683016 -0.707107 0.182999
vn  0.000000 -1.000000 0.000000
vn  -0.612382 -0.707107 0.353538
vn  0.000000 -1.000000 0.000000
vn  -0.500012 -0.707107 0.499988
vn  0.000000 -1.000000 0.000000
vn  -0.353565 -0.707107 0.612366
vn  0.000000 -1.000000 0.000000
vn  -0.183020 -0.707107 0.683011
vn  0.000000 -1.000000 0.000000
vn  -0.000000 -0.707107 0.707107
vn  0.000000 -1.000000 0.000000
vn  0.183019 -0.707107 0.683011
vn  0.000000 -1.000000 0.000000
vn  0.353565 -0.707107 0.612366
vn  0.000000 -1.000000 0.000000
vn  0.500012 -0.707107 0.499988
vn  0.000000 -1.000000 0.000000
vn  0.612381 -0.707107 0.353538
vn  0.000000 -1.000000 0.000000
vn  0.683016 -0.707107 0.182999
vn  0.000000 1.000000 0.000000
vn  1.000000 0.000000 0.000000
vn  1.000000 0.000000 0.000000
vn  0.000000 1.000000 0.000000
vn  0.900969 0.000000 0.433884
vn  0.000000 1.000000 0.000000
vn  0.623490 0.000000 0.781831
vn  0.000000 1.000000 0.000000
vn  0.222521 0.000000 0.974928
vn  0.000000 1.000000 0.000000
vn  -0.222521 0.000000 0.974928
vn  0.000000 1.000000 0.000000
vn  -0.623490 0.000000 0.781831
vn  0.000000 1.000000 0.000000
vn  -0.900969 0.000000 0.433884
vn  0.000000 1.000000 0.000000
vn  -1.000000 0.000000 -0.000000
vn  -1.000000 0.000000 -0.000000
vn  0.000000 1.000000 0.000000
vn  -0.900969 0.000000 -0.433884
vn  0.000000 1.000000 0.000000
vn  -0.623490 0.000000 -0.781831
vn  0.000000 1.000000 0.000000
vn  -0.222521 0.000000 -0.974928
vn  0.000000 1.000000 0.000000
vn  0.222521 0.000000 -0.974928
vn  0.000000 1.000000 0.000000
vn  0.623490 0.000000 -0.781831
vn  0.000000 1.000000 0.000000
vn  0.900969 0.000000 -0.433884
vn  -1.000000 0.000000 -0.000000
vn  -1.000000 0.000000 -0.000000
vn  -0.707107 -0.707107 -0.000000
vn  -0.707107 -0.707107 0.000000
vn  -0.900972 0.000000 -0.433877
vn  -0.637083 -0.707107 -0.306798
vn  -0.623493 0.000000 -0.781829
vn  -0.440876 -0.707107 -0.552837
vn  -0.222522 0.000000 -0.974928
vn  -0.157347 -0.707107 -0.689378
vn  0.222522 0.000000 -0.974928
vn  0.157347 -0.707107 -0.689378
vn  0.623493 0.000000 -0.781829
vn  0.440876 -0.707107 -0.552837
vn  0.900972 0.000000 -0.433877
vn  0.637083 -0.707107 -0.306797
vn  1.000000 0.000000 0.000000
vn  1.000000 0.000000 0.000000
vn  0.707107 -0.707107 -0.000000
vn  0.707107 -0.707107 0.000000
vn  0.900972 0.000000 0.433877
vn  0.637083 -0.707107 0.306798
vn  0.623493 0.000000 0.781829
vn  0.440876 -0.707107 0.552837
vn  0.222522 0.000000 0.974928
vn  0.157347 -0.707107 0.689378
vn  -0.222522 0.000000 0.974928
vn  -0.157347 -0.707107 0.689378
vn  -0.623493 0.000000 0.781829
vn  -0.440876 -0.707107 0.552837
vn  -0.900972 0.000000 0.433877
vn  -0.637083 -0.707107 0.306797


g 0
g 1
usemtl MTL0
f 24/24/24  4/4/4  1/1/1
f 100/100/100  3/3/3  5/5/5
f 26/26/26  24/24/24  1/1/1
f 49/49/49  26/26/26  1/1/1
f 102/102/102  50/50/50  2/2/2
f 102/102/102  2/2/2  99/99/99
f 22/22/22  6/6/6  4/4/4
f 96/96/96  5/5/5  7/7/7
f 24/24/24  22/22/22  4/4/4
f 100/100/100  5/5/5  96/96/96
f 20/20/20  8/8/8  6/6/6
f 96/96/96  7/7/7  9/9/9
f 22/22/22  20/20/20  6/6/6
f 18/18/18  10/10/10  8/8/8
f 94/94/94  9/9/9  11/11/11
f 20/20/20  18/18/18  8/8/8
f 96/96/96  9/9/9  94/94/94
f 16/16/16  12/12/12  10/10/10
f 94/94/94  11/11/11  13/13/13
f 18/18/18  16/16/16  10/10/10
f 16/16/16  14/14/14  12/12/12
f 92/92/92  13/13/13  15/15/15
f 94/94/94  13/13/13  92/92/92
f 90/90/90  15/15/15  17/17/17
f 92/92/92  15/15/15  90/90/90
f 90/90/90  17/17/17  19/19/19
f 88/88/88  19/19/19  21/21/21
f 90/90/90  19/19/19  88/88/88
f 88/88/88  21/21/21  23/23/23
f 86/86/86  23/23/23  25/25/25
f 88/88/88  23/23/23  86/86/86
f 86/86/86  25/25/25  28/28/28
f 49/49/49  29/29/29  26/26/26
f 83/83/83  27/27/27  30/30/30
f 86/86/86  28/28/28  84/84/84
f 47/47/47  31/31/31  29/29/29
f 112/112/112  30/30/30  32/32/32
f 49/49/49  47/47/47  29/29/29
f 112/112/112  83/83/83  30/30/30
f 45/45/45  33/33/33  31/31/31
f 112/112/112  32/32/32  34/34/34
f 47/47/47  45/45/45  31/31/31
f 43/43/43  35/35/35  33/33/33
f 110/110/110  34/34/34  36/36/36
f 45/45/45  43/43/43  33/33/33
f 112/112/112  34/34/34  110/110/110
f 41/41/41  37/37/37  35/35/35
f 110/110/110  36/36/36  38/38/38
f 43/43/43  41/41/41  35/35/35
f 41/41/41  39/39/39  37/37/37
f 108/108/108  38/38/38  40/40/40
f 110/110/110  38/38/38  108/108/108
f 106/106/106  40/40/40  42/42/42
f 108/108/108  40/40/40  106/106/106
f 106/106/106  42/42/42  44/44/44
f 104/104/104  44/44/44  46/46/46
f 106/106/106  44/44/44  104/104/104
f 104/104/104  46/46/46  48/48/48
f 102/102/102  48/48/48  50/50/50
f 104/104/104  48/48/48  102/102/102
f 64/64/64  54/54/54  51/51/51
f 98/98/98  53/53/53  55/55/55
f 66/66/66  64/64/64  51/51/51
f 79/79/79  66/66/66  51/51/51
f 95/95/95  80/80/80  52/52/52
f 97/97/97  95/95/95  52/52/52
f 62/62/62  56/56/56  54/54/54
f 103/103/103  55/55/55  57/57/57
f 64/64/64  62/62/62  54/54/54
f 101/101/101  98/98/98  55/55/55
f 103/103/103  101/101/101  55/55/55
f 60/60/60  58/58/58  56/56/56
f 103/103/103  57/57/57  59/59/59
f 62/62/62  60/60/60  56/56/56
f 105/105/105  59/59/59  61/61/61
f 105/105/105  103/103/103  59/59/59
f 107/107/107  61/61/61  63/63/63
f 107/107/107  105/105/105  61/61/61
f 109/109/109  63/63/63  65/65/65
f 109/109/109  107/107/107  63/63/63
f 111/111/111  65/65/65  68/68/68
f 111/111/111  109/109/109  65/65/65
f 79/79/79  69/69/69  66/66/66
f 81/81/81  67/67/67  70/70/70
f 111/111/111  68/68/68  82/82/82
f 77/77/77  71/71/71  69/69/69
f 87/87/87  70/70/70  72/72/72
f 79/79/79  77/77/77  69/69/69
f 85/85/85  81/81/81  70/70/70
f 87/87/87  85/85/85  70/70/70
f 75/75/75  73/73/73  71/71/71
f 87/87/87  72/72/72  74/74/74
f 77/77/77  75/75/75  71/71/71
f 89/89/89  74/74/74  76/76/76
f 89/89/89  87/87/87  74/74/74
f 91/91/91  76/76/76  78/78/78
f 91/91/91  89/89/89  76/76/76
f 93/93/93  78/78/78  80/80/80
f 93/93/93  91/91/91  78/78/78
f 95/95/95  93/93/93  80/80/80
