mtllib nylon_gear_holder.mtl

v  5.350000 0.000000 0.000000
v  5.350000 0.000000 0.000000
v  5.350000 0.000000 0.000000
v  5.215900 0.000000 -1.189982
v  5.215900 0.000000 -1.189982
v  4.820061 0.000000 -2.321275
v  4.820061 0.000000 -2.321275
v  4.182590 0.000000 -3.335887
v  4.182590 0.000000 -3.335887
v  3.336056 0.000000 -4.182455
v  3.336056 0.000000 -4.182455
v  2.321446 0.000000 -4.819979
v  2.321446 0.000000 -4.819979
v  1.190103 0.000000 -5.215873
v  1.190103 0.000000 -5.215873
v  0.000000 0.000000 -5.350000
v  0.000000 0.000000 -5.350000
v  -1.190102 0.000000 -5.215873
v  -1.190102 0.000000 -5.215873
v  -2.321446 0.000000 -4.819979
v  -2.321446 0.000000 -4.819979
v  -3.336056 0.000000 -4.182456
v  -3.336056 0.000000 -4.182456
v  -4.182590 0.000000 -3.335888
v  -4.182590 0.000000 -3.335888
v  -4.820061 0.000000 -2.321276
v  -4.820061 0.000000 -2.321276
v  -5.215900 0.000000 -1.189982
v  -5.215900 0.000000 -1.189982
v  -5.350000 0.000000 -0.000000
v  -5.350000 0.000000 -0.000000
v  -5.350000 0.000000 -0.000000
v  -5.215900 0.000000 1.189982
v  -5.215900 0.000000 1.189982
v  -4.820061 0.000000 2.321275
v  -4.820061 0.000000 2.321275
v  -4.182590 0.000000 3.335887
v  -4.182590 0.000000 3.335887
v  -3.336056 0.000000 4.182455
v  -3.336056 0.000000 4.182455
v  -2.321446 0.000000 4.819979
v  -2.321446 0.000000 4.819979
v  -1.190103 0.000000 5.215873
v  -1.190103 0.000000 5.215873
v  -0.000000 0.000000 5.350000
v  -0.000000 0.000000 5.350000
v  1.190102 0.000000 5.215873
v  1.190102 0.000000 5.215873
v  2.321446 0.000000 4.819979
v  2.321446 0.000000 4.819979
v  3.336056 0.000000 4.182456
v  3.336056 0.000000 4.182456
v  4.182590 0.000000 3.335888
v  4.182590 0.000000 3.335888
v  4.820061 0.000000 2.321276
v  4.820061 0.000000 2.321276
v  5.215900 0.000000 1.189982
v  5.215900 0.000000 1.189982
v  6.350000 40.250000 0.000000
v  6.350000 40.250000 0.000000
v  6.350000 40.250000 0.000000
v  5.866492 40.250000 2.430294
v  5.866492 40.250000 2.430294
v  4.490084 40.250000 4.490084
v  4.490084 40.250000 4.490084
v  2.430294 40.250000 5.866492
v  2.430294 40.250000 5.866492
v  -0.000000 40.250000 6.350000
v  -0.000000 40.250000 6.350000
v  -2.430294 40.250000 5.866492
v  -2.430294 40.250000 5.866492
v  -4.490084 40.250000 4.490084
v  -4.490084 40.250000 4.490084
v  -5.866492 40.250000 2.430294
v  -5.866492 40.250000 2.430294
v  -6.350000 40.250000 -0.000000
v  -6.350000 40.250000 -0.000000
v  -6.350000 40.250000 -0.000000
v  -5.866492 40.250000 -2.430294
v  -5.866492 40.250000 -2.430294
v  -4.490084 40.250000 -4.490084
v  -4.490084 40.250000 -4.490084
v  -2.430294 40.250000 -5.866492
v  -2.430294 40.250000 -5.866492
v  0.000000 40.250000 -6.350000
v  0.000000 40.250000 -6.350000
v  2.430294 40.250000 -5.866492
v  2.430294 40.250000 -5.866492
v  4.490084 40.250000 -4.490084
v  4.490084 40.250000 -4.490084
v  5.866492 40.250000 -2.430294
v  5.866492 40.250000 -2.430294
v  -6.350000 1.000000 -0.000000
v  -6.350000 1.000000 -0.000000
v  -6.350000 1.000000 -0.000000
v  -6.350000 1.000000 -0.000000
v  -5.866651 1.000000 -2.430001
v  -5.866651 1.000000 -2.430001
v  -4.490146 1.000000 -4.490110
v  -4.490146 1.000000 -4.490110
v  -2.430052 1.000000 -5.866630
v  -2.430052 1.000000 -5.866630
v  0.000001 1.000000 -6.350000
v  0.000001 1.000000 -6.350000
v  2.430053 1.000000 -5.866630
v  2.430053 1.000000 -5.866630
v  4.490147 1.000000 -4.490109
v  4.490147 1.000000 -4.490109
v  5.866651 1.000000 -2.430000
v  5.866651 1.000000 -2.430000
v  6.350000 1.000000 0.000000
v  6.350000 1.000000 0.000000
v  6.350000 1.000000 0.000000
v  6.350000 1.000000 0.000000
v  5.866651 1.000000 2.430001
v  5.866651 1.000000 2.430001
v  4.490146 1.000000 4.490110
v  4.490146 1.000000 4.490110
v  2.430052 1.000000 5.866630
v  2.430052 1.000000 5.866630
v  -0.000001 1.000000 6.350000
v  -0.000001 1.000000 6.350000
v  -2.430053 1.000000 5.866630
v  -2.430053 1.000000 5.866630
v  -4.490147 1.000000 4.490109
v  -4.490147 1.000000 4.490109
v  -5.866651 1.000000 2.430000
v  -5.866651 1.000000 2.430000

vt  0.000000 0.500000 0.000000
vt  0.000000 0.500000 0.000000
vt  0.000000 0.500000 0.000000
vt  0.000000 0.428601 0.000000
vt  0.000000 0.428601 0.000000
vt  0.000000 0.357140 0.000000
vt  0.000000 0.357140 0.000000
vt  0.000000 0.285696 0.000000
vt  0.000000 0.285696 0.000000
vt  0.000000 0.214316 0.000000
vt  0.000000 0.214316 0.000000
vt  0.000000 0.142871 0.000000
vt  0.000000 0.142871 0.000000
vt  0.000000 0.071406 0.000000
vt  0.000000 0.071406 0.000000
vt  0.000000 0.000000 0.000000
vt  0.000000 0.000000 0.000000
vt  1.000000 0.071406 0.000000
vt  1.000000 0.071406 0.000000
vt  1.000000 0.142871 0.000000
vt  1.000000 0.142871 0.000000
vt  1.000000 0.214316 0.000000
vt  1.000000 0.214316 0.000000
vt  1.000000 0.285696 0.000000
vt  1.000000 0.285696 0.000000
vt  1.000000 0.357140 0.000000
vt  1.000000 0.357140 0.000000
vt  1.000000 0.428601 0.000000
vt  1.000000 0.428601 0.000000
vt  1.000000 0.500000 0.000000
vt  1.000000 0.500000 0.000000
vt  1.000000 0.500000 0.000000
vt  1.000000 0.571399 0.000000
vt  1.000000 0.571399 0.000000
vt  1.000000 0.642860 0.000000
vt  1.000000 0.642860 0.000000
vt  1.000000 0.714304 0.000000
vt  1.000000 0.714304 0.000000
vt  1.000000 0.785684 0.000000
vt  1.000000 0.785684 0.000000
vt  1.000000 0.857129 0.000000
vt  1.000000 0.857129 0.000000
vt  1.000000 0.928594 0.000000
vt  1.000000 0.928594 0.000000
vt  1.000000 1.000000 0.000000
vt  1.000000 1.000000 0.000000
vt  0.000000 0.928594 0.000000
vt  0.000000 0.928594 0.000000
vt  0.000000 0.857129 0.000000
vt  0.000000 0.857129 0.000000
vt  0.000000 0.785684 0.000000
vt  0.000000 0.785684 0.000000
vt  0.000000 0.714304 0.000000
vt  0.000000 0.714304 0.000000
vt  0.000000 0.642860 0.000000
vt  0.000000 0.642860 0.000000
vt  0.000000 0.571399 0.000000
vt  0.000000 0.571399 0.000000
vt  0.450193 0.500000 0.000000
vt  0.450193 0.500000 0.000000
vt  0.450193 0.500000 0.000000
vt  0.453930 0.518996 0.000000
vt  0.453930 0.518996 0.000000
vt  0.464637 0.535147 0.000000
vt  0.464637 0.535147 0.000000
vt  0.480804 0.545987 0.000000
vt  0.480804 0.545987 0.000000
vt  0.500000 0.549807 0.000000
vt  0.500000 0.549807 0.000000
vt  0.519196 0.545987 0.000000
vt  0.519196 0.545987 0.000000
vt  0.535363 0.535147 0.000000
vt  0.535363 0.535147 0.000000
vt  0.546070 0.518996 0.000000
vt  0.546070 0.518996 0.000000
vt  0.549807 0.500000 0.000000
vt  0.549807 0.500000 0.000000
vt  0.549807 0.500000 0.000000
vt  0.546070 0.481004 0.000000
vt  0.546070 0.481004 0.000000
vt  0.535363 0.464853 0.000000
vt  0.535363 0.464853 0.000000
vt  0.519196 0.454013 0.000000
vt  0.519196 0.454013 0.000000
vt  0.500000 0.450193 0.000000
vt  0.500000 0.450193 0.000000
vt  0.480804 0.454013 0.000000
vt  0.480804 0.454013 0.000000
vt  0.464637 0.464853 0.000000
vt  0.464637 0.464853 0.000000
vt  0.453930 0.481004 0.000000
vt  0.453930 0.481004 0.000000
vt  0.950281 0.500000 0.000000
vt  0.950281 0.500000 0.000000
vt  0.950281 0.500000 0.000000
vt  0.950281 0.500000 0.000000
vt  0.946259 0.376606 0.000000
vt  0.946259 0.376606 0.000000
vt  0.930248 0.253853 0.000000
vt  0.930248 0.253853 0.000000
vt  0.875734 0.134047 0.000000
vt  0.875734 0.134047 0.000000
vt  0.500000 0.049719 0.000000
vt  0.500000 0.049719 0.000000
vt  0.124266 0.134047 0.000000
vt  0.124266 0.134047 0.000000
vt  0.069752 0.253853 0.000000
vt  0.069752 0.253853 0.000000
vt  0.053741 0.376606 0.000000
vt  0.053741 0.376606 0.000000
vt  0.049719 0.500000 0.000000
vt  0.049719 0.500000 0.000000
vt  0.049719 0.500000 0.000000
vt  0.049719 0.500000 0.000000
vt  0.053741 0.623394 0.000000
vt  0.053741 0.623394 0.000000
vt  0.069752 0.746147 0.000000
vt  0.069752 0.746147 0.000000
vt  0.124266 0.865953 0.000000
vt  0.124266 0.865953 0.000000
vt  0.500000 0.950281 0.000000
vt  0.500000 0.950281 0.000000
vt  0.875734 0.865953 0.000000
vt  0.875734 0.865953 0.000000
vt  0.930248 0.746147 0.000000
vt  0.930248 0.746147 0.000000
vt  0.946259 0.623394 0.000000
vt  0.946259 0.623394 0.000000

vn  0.000000 -1.000000 0.000000
vn  0.707107 -0.707107 -0.000000
vn  0.707107 -0.707107 0.000000
vn  0.000000 -1.000000 0.000000
vn  0.689381 -0.707107 -0.157335
vn  0.000000 -1.000000 0.000000
vn  0.637088 -0.707107 -0.306788
vn  0.000000 -1.000000 0.000000
vn  0.552848 -0.707107 -0.440862
vn  0.000000 -1.000000 0.000000
vn  0.440884 -0.707107 -0.552830
vn  0.000000 -1.000000 0.000000
vn  0.306811 -0.707107 -0.637077
vn  0.000000 -1.000000 0.000000
vn  0.157351 -0.707107 -0.689377
vn  0.000000 -1.000000 0.000000
vn  0.000000 -0.707107 -0.707107
vn  0.000000 -1.000000 0.000000
vn  -0.157351 -0.707107 -0.689377
vn  0.000000 -1.000000 0.000000
vn  -0.306811 -0.707107 -0.637077
vn  0.000000 -1.000000 0.000000
vn  -0.440884 -0.707107 -0.552830
vn  0.000000 -1.000000 0.000000
vn  -0.552848 -0.707107 -0.440862
vn  0.000000 -1.000000 0.000000
vn  -0.637088 -0.707107 -0.306788
vn  0.000000 -1.000000 0.000000
vn  -0.689381 -0.707107 -0.157335
vn  0.000000 -1.000000 0.000000
vn  -0.707107 -0.707107 -0.000000
vn  -0.707107 -0.707107 0.000000
vn  0.000000 -1.000000 0.000000
vn  -0.689381 -0.707107 0.157335
vn  0.000000 -1.000000 0.000000
vn  -0.637088 -0.707107 0.306788
vn  0.000000 -1.000000 0.000000
vn  -0.552848 -0.707107 0.440862
vn  0.000000 -1.000000 0.000000
vn  -0.440884 -0.707107 0.552830
vn  0.000000 -1.000000 0.000000
vn  -0.306811 -0.707107 0.637077
vn  0.000000 -1.000000 0.000000
vn  -0.157351 -0.707107 0.689377
vn  0.000000 -1.000000 0.000000
vn  -0.000000 -0.707107 0.707107
vn  0.000000 -1.000000 0.000000
vn  0.157351 -0.707107 0.689377
vn  0.000000 -1.000000 0.000000
vn  0.306811 -0.707107 0.637077
vn  0.000000 -1.000000 0.000000
vn  0.440884 -0.707107 0.552830
vn  0.000000 -1.000000 0.000000
vn  0.552848 -0.707107 0.440862
vn  0.000000 -1.000000 0.000000
vn  0.637088 -0.707107 0.306788
vn  0.000000 -1.000000 0.000000
vn  0.689381 -0.707107 0.157335
vn  0.000000 1.000000 0.000000
vn  1.000000 0.000000 0.000000
vn  1.000000 0.000000 0.000000
vn  0.000000 1.000000 0.000000
vn  0.923880 0.000000 0.382683
vn  0.000000 1.000000 0.000000
vn  0.707107 0.000000 0.707107
vn  0.000000 1.000000 0.000000
vn  0.382683 0.000000 0.923880
vn  0.000000 1.000000 0.000000
vn  -0.000000 0.000000 1.000000
vn  0.000000 1.000000 0.000000
vn  -0.382683 0.000000 0.923880
vn  0.000000 1.000000 0.000000
vn  -0.707107 0.000000 0.707107
vn  0.000000 1.000000 0.000000
vn  -0.923880 0.000000 0.382683
vn  0.000000 1.000000 0.000000
vn  -1.000000 0.000000 -0.000000
vn  -1.000000 0.000000 -0.000000
vn  0.000000 1.000000 0.000000
vn  -0.923880 0.000000 -0.382683
vn  0.000000 1.000000 0.000000
vn  -0.707107 0.000000 -0.707107
vn  0.000000 1.000000 0.000000
vn  -0.382683 0.000000 -0.923880
vn  0.000000 1.000000 0.000000
vn  0.000000 0.000000 -1.000000
vn  0.000000 1.000000 0.000000
vn  0.382683 0.000000 -0.923880
vn  0.000000 1.000000 0.000000
vn  0.707107 0.000000 -0.707107
vn  0.000000 1.000000 0.000000
vn  0.923880 0.000000 -0.382683
vn  -1.000000 0.000000 -0.000000
vn  -1.000000 0.000000 -0.000000
vn  -0.707107 -0.707107 -0.000000
vn  -0.707107 -0.707107 0.000000
vn  -0.923882 0.000000 -0.382677
vn  -0.653283 -0.707107 -0.270594
vn  -0.707110 0.000000 -0.707104
vn  -0.500002 -0.707107 -0.499998
vn  -0.382685 0.000000 -0.923879
vn  -0.270599 -0.707107 -0.653281
vn  0.000000 0.000000 -1.000000
vn  0.000000 -0.707107 -0.707107
vn  0.382686 0.000000 -0.923879
vn  0.270600 -0.707107 -0.653281
vn  0.707110 0.000000 -0.707104
vn  0.500002 -0.707107 -0.499998
vn  0.923882 0.000000 -0.382677
vn  0.653283 -0.707107 -0.270594
vn  1.000000 0.000000 0.000000
vn  1.000000 0.000000 0.000000
vn  0.707107 -0.707107 -0.000000
vn  0.707107 -0.707107 0.000000
vn  0.923882 0.000000 0.382677
vn  0.653283 -0.707107 0.270594
vn  0.707110 0.000000 0.707104
vn  0.500002 -0.707107 0.499998
vn  0.382685 0.000000 0.923879
vn  0.270599 -0.707107 0.653281
vn  -0.000000 0.000000 1.000000
vn  -0.000000 -0.707107 0.707107
vn  -0.382686 0.000000 0.923879
vn  -0.270600 -0.707107 0.653281
vn  -0.707110 0.000000 0.707104
vn  -0.500002 -0.707107 0.499998
vn  -0.923882 0.000000 0.382677
vn  -0.653283 -0.707107 0.270594


g 0
g 1
usemtl MTL0
f 28/28/28  4/4/4  1/1/1
f 114/114/114  3/3/3  5/5/5
f 30/30/30  28/28/28  1/1/1
f 57/57/57  30/30/30  1/1/1
f 116/116/116  58/58/58  2/2/2
f 116/116/116  2/2/2  113/113/113
f 26/26/26  6/6/6  4/4/4
f 110/110/110  5/5/5  7/7/7
f 28/28/28  26/26/26  4/4/4
f 114/114/114  5/5/5  110/110/110
f 24/24/24  8/8/8  6/6/6
f 110/110/110  7/7/7  9/9/9
f 26/26/26  24/24/24  6/6/6
f 22/22/22  10/10/10  8/8/8
f 108/108/108  9/9/9  11/11/11
f 24/24/24  22/22/22  8/8/8
f 110/110/110  9/9/9  108/108/108
f 20/20/20  12/12/12  10/10/10
f 108/108/108  11/11/11  13/13/13
f 22/22/22  20/20/20  10/10/10
f 18/18/18  14/14/14  12/12/12
f 106/106/106  13/13/13  15/15/15
f 20/20/20  18/18/18  12/12/12
f 108/108/108  13/13/13  106/106/106
f 18/18/18  16/16/16  14/14/14
f 106/106/106  15/15/15  17/17/17
f 104/104/104  17/17/17  19/19/19
f 106/106/106  17/17/17  104/104/104
f 102/102/102  19/19/19  21/21/21
f 104/104/104  19/19/19  102/102/102
f 102/102/102  21/21/21  23/23/23
f 100/100/100  23/23/23  25/25/25
f 102/102/102  23/23/23  100/100/100
f 100/100/100  25/25/25  27/27/27
f 98/98/98  27/27/27  29/29/29
f 100/100/100  27/27/27  98/98/98
f 98/98/98  29/29/29  32/32/32
f 57/57/57  33/33/33  30/30/30
f 95/95/95  31/31/31  34/34/34
f 98/98/98  32/32/32  96/96/96
f 55/55/55  35/35/35  33/33/33
f 128/128/128  34/34/34  36/36/36
f 57/57/57  55/55/55  33/33/33
f 128/128/128  95/95/95  34/34/34
f 53/53/53  37/37/37  35/35/35
f 128/128/128  36/36/36  38/38/38
f 55/55/55  53/53/53  35/35/35
f 51/51/51  39/39/39  37/37/37
f 126/126/126  38/38/38  40/40/40
f 53/53/53  51/51/51  37/37/37
f 128/128/128  38/38/38  126/126/126
f 49/49/49  41/41/41  39/39/39
f 126/126/126  40/40/40  42/42/42
f 51/51/51  49/49/49  39/39/39
f 47/47/47  43/43/43  41/41/41
f 124/124/124  42/42/42  44/44/44
f 49/49/49  47/47/47  41/41/41
f 126/126/126  42/42/42  124/124/124
f 47/47/47  45/45/45  43/43/43
f 124/124/124  44/44/44  46/46/46
f 122/122/122  46/46/46  48/48/48
f 124/124/124  46/46/46  122/122/122
f 120/120/120  48/48/48  50/50/50
f 122/122/122  48/48/48  120/120/120
f 120/120/120  50/50/50  52/52/52
f 118/118/118  52/52/52  54/54/54
f 120/120/120  52/52/52  118/118/118
f 118/118/118  54/54/54  56/56/56
f 116/116/116  56/56/56  58/58/58
f 118/118/118  56/56/56  116/116/116
f 74/74/74  62/62/62  59/59/59
f 112/112/112  61/61/61  63/63/63
f 76/76/76  74/74/74  59/59/59
f 91/91/91  76/76/76  59/59/59
f 109/109/109  92/92/92  60/60/60
f 111/111/111  109/109/109  60/60/60
f 72/72/72  64/64/64  62/62/62
f 117/117/117  63/63/63  65/65/65
f 74/74/74  72/72/72  62/62/62
f 115/115/115  112/112/112  63/63/63
f 117/117/117  115/115/115  63/63/63
f 70/70/70  66/66/66  64/64/64
f 117/117/117  65/65/65  67/67/67
f 72/72/72  70/70/70  64/64/64
f 70/70/70  68/68/68  66/66/66
f 119/119/119  67/67/67  69/69/69
f 119/119/119  117/117/117  67/67/67
f 121/121/121  69/69/69  71/71/71
f 121/121/121  119/119/119  69/69/69
f 123/123/123  71/71/71  73/73/73
f 123/123/123  121/121/121  71/71/71
f 125/125/125  73/73/73  75/75/75
f 125/125/125  123/123/123  73/73/73
f 127/127/127  75/75/75  78/78/78
f 127/127/127  125/125/125  75/75/75
f 91/91/91  79/79/79  76/76/76
f 93/93/93  77/77/77  80/80/80
f 127/127/127  78/78/78  94/94/94
f 89/89/89  81/81/81  79/79/79
f 99/99/99  80/80/80  82/82/82
f 91/91/91  89/89/89  79/79/79
f 97/97/97  93/93/93  80/80/80
f 99/99/99  97/97/97  80/80/80
f 87/87/87  83/83/83  81/81/81
f 99/99/99  82/82/82  84/84/84
f 89/89/89  87/87/87  81/81/81
f 87/87/87  85/85/85  83/83/83
f 101/101/101  84/84/84  86/86/86
f 101/101/101  99/99/99  84/84/84
f 103/103/103  86/86/86  88/88/88
f 103/103/103  101/101/101  86/86/86
f 105/105/105  88/88/88  90/90/90
f 105/105/105  103/103/103  88/88/88
f 107/107/107  90/90/90  92/92/92
f 107/107/107  105/105/105  90/90/90
f 109/109/109  107/107/107  92/92/92
